<?xml version="1.0" standalone="no"?>
<!DOCTYPE svg PUBLIC "-//W3C//DTD SVG 20010904//EN"
 "http://www.w3.org/TR/2001/REC-SVG-20010904/DTD/svg10.dtd">
<svg version="1.0" xmlns="http://www.w3.org/2000/svg"
 width="1600.000000pt" height="567.000000pt" viewBox="0 0 1600.000000 567.000000"
 preserveAspectRatio="xMidYMid meet">

<g transform="translate(0.000000,567.000000) scale(0.100000,-0.100000)"
fill="#000000" stroke="none">
<path d="M11348 5566 c-9 -8 -28 -99 -47 -222 -18 -115 -46 -290 -62 -389 -46
-295 -87 -551 -109 -695 -56 -354 -70 -446 -70 -452 0 -23 -24 1 -76 74 -394
563 -1205 644 -1898 191 -245 -160 -425 -340 -592 -590 -290 -437 -401 -1023
-283 -1503 84 -338 243 -581 493 -749 267 -181 647 -245 1001 -170 335 72 694
279 937 542 37 39 70 68 74 64 4 -4 -5 -80 -19 -169 -42 -261 -50 -325 -44
-342 6 -14 56 -16 525 -16 434 0 521 2 531 14 13 15 14 25 61 323 16 106 43
277 60 380 40 253 83 527 120 763 16 107 44 281 60 385 17 105 44 278 60 385
17 107 44 281 61 385 69 440 89 570 119 760 37 240 83 534 111 705 45 277 49
313 38 327 -17 20 -1031 19 -1051 -1z m-956 -1961 c117 -24 192 -67 293 -169
102 -102 148 -181 187 -322 18 -66 21 -105 21 -239 0 -143 -3 -171 -27 -260
-32 -119 -98 -262 -163 -354 -117 -166 -300 -320 -477 -401 -135 -62 -200 -75
-371 -75 -127 0 -161 3 -220 22 -129 40 -255 141 -336 266 -143 221 -156 580
-32 877 89 215 271 426 465 542 79 47 227 105 301 117 84 14 286 12 359 -4z"/>
<path d="M8549 5254 c-233 -204 -900 -853 -1700 -1653 -745 -746 -1008 -1015
-1530 -1567 -606 -641 -1658 -1797 -1690 -1855 -15 -29 2 -22 46 18 115 105
595 563 785 749 422 411 984 964 1070 1052 52 53 232 237 400 408 729 741
1632 1705 2371 2529 258 289 314 354 306 361 -3 3 -29 -16 -58 -42z"/>
<path d="M662 5253 c-5 -10 -14 -54 -21 -98 -6 -44 -25 -163 -41 -265 -39
-246 -95 -599 -125 -790 -31 -197 -77 -487 -115 -727 -16 -104 -43 -276 -60
-383 -40 -250 -84 -527 -120 -755 -77 -486 -92 -579 -120 -758 -17 -105 -35
-219 -40 -251 -7 -42 -6 -63 1 -73 9 -10 109 -13 521 -13 315 0 516 4 528 10
12 7 20 26 25 62 4 29 20 134 35 233 16 99 43 270 60 380 17 110 44 283 60
385 16 102 43 277 61 390 48 317 78 492 84 498 10 10 36 -25 245 -323 112
-159 256 -364 320 -455 64 -91 273 -388 464 -660 191 -272 355 -501 364 -507
12 -10 165 -13 686 -13 383 0 677 4 685 9 12 8 4 24 -39 83 -30 40 -100 136
-155 213 -56 77 -143 196 -194 265 -50 69 -147 202 -214 295 -163 225 -467
642 -532 730 -28 39 -89 122 -135 185 -46 63 -126 172 -177 242 -51 70 -96
133 -98 141 -4 8 78 89 212 212 120 110 295 270 388 356 94 86 395 363 670
615 760 696 835 766 835 775 0 5 -296 9 -686 9 l-686 0 -101 -97 c-56 -53
-167 -160 -247 -238 -80 -77 -273 -264 -430 -415 -157 -151 -352 -341 -435
-421 -362 -352 -658 -635 -672 -643 -19 -10 -16 25 27 284 16 96 57 346 90
555 33 209 74 461 90 560 56 342 62 386 56 400 -5 13 -78 15 -530 15 -490 0
-526 -1 -534 -17z"/>
<path d="M6191 4359 c-322 -27 -606 -106 -881 -246 -421 -215 -752 -539 -935
-918 -70 -144 -99 -222 -135 -367 -105 -422 -42 -824 180 -1154 65 -96 186
-228 236 -257 23 -13 -8 -45 521 532 79 86 143 164 143 174 0 10 -11 39 -24
65 -166 333 -76 752 229 1057 275 274 650 370 1016 259 59 -18 92 -23 103 -17
37 21 656 636 656 652 0 41 -314 156 -519 191 -217 36 -391 45 -590 29z"/>
<path d="M14250 4359 c-308 -27 -568 -99 -835 -231 -572 -283 -968 -787 -1091
-1391 -24 -117 -28 -155 -28 -337 -1 -179 2 -218 22 -308 61 -273 193 -502
383 -668 248 -217 564 -342 959 -380 279 -27 569 -8 830 55 350 84 673 236
950 447 119 90 163 131 158 146 -5 15 -656 438 -675 438 -7 0 -46 -25 -86 -55
-136 -105 -343 -195 -527 -229 -259 -49 -541 -17 -719 81 -92 51 -203 164
-241 244 -30 66 -57 195 -47 223 6 14 132 16 1290 16 1016 0 1287 3 1295 13
21 26 82 270 97 388 19 159 19 207 -4 364 -69 467 -313 807 -729 1015 -193 96
-410 150 -682 170 -151 11 -184 11 -320 -1z m300 -804 c254 -54 430 -260 430
-504 l0 -61 -775 0 c-690 0 -775 2 -775 15 0 53 110 214 212 311 154 146 335
228 568 258 66 8 265 -3 340 -19z"/>
<path d="M7303 3748 c-344 -365 -424 -452 -433 -468 -6 -11 3 -41 24 -91 30
-69 45 -130 60 -246 7 -50 -8 -204 -29 -308 -53 -254 -241 -502 -493 -650
-244 -142 -563 -170 -826 -71 l-67 25 -46 -42 c-81 -74 -105 -97 -366 -357
-141 -140 -257 -260 -257 -266 0 -15 125 -84 224 -124 403 -160 991 -159 1471
2 335 113 664 317 894 557 259 270 423 568 503 916 25 111 30 157 35 315 4
163 2 197 -16 288 -44 210 -108 366 -214 521 -65 94 -198 231 -225 231 -14 0
-95 -79 -239 -232z"/>
</g>
</svg>
